{"accessors":[{"bufferView":0,"componentType":5123,"count":207360,"max":[37752],"min":[0],"type":"SCALAR"},{"bufferView":1,"componentType":5126,"count":37753,"max":[1.3348323106765747,0.7225468754768372,1.3348321914672852],"min":[-1.3348323106765747,0.0009515720303170383,-1.3348321914672852],"type":"VEC3"},{"bufferView":2,"componentType":5126,"count":37753,"max":[1.0,1.0,1.0],"min":[-1.0,-1.0,-1.0],"type":"VEC3"},{"bufferView":3,"componentType":5126,"count":37753,"max":[0.7500001192092896,0.625],"min":[0.2499999850988388,0.37499988079071045],"type":"VEC2"},{"bufferView":4,"componentType":5123,"count":13824,"max":[2512],"min":[0],"type":"SCALAR"},{"bufferView":5,"componentType":5126,"count":2513,"max":[0.969123899936676,0.7225468754768372,0.969123899936676],"min":[-0.969123899936676,0.7225466370582581,-0.969123899936676],"type":"VEC3"},{"bufferView":6,"componentType":5126,"count":2513,"max":[1.9999999949504854e-06,1.0,9.999999974752427e-07],"min":[-1.9999999949504854e-06,1.0,-9.999999974752427e-07],"type":"VEC3"},{"bufferView":7,"componentType":5126,"count":2513,"max":[0.7500001192092896,0.465753436088562],"min":[0.659246563911438,0.3749999403953552],"type":"VEC2"},{"bufferView":8,"componentType":5123,"count":231936,"max":[41990],"min":[0],"type":"SCALAR"},{"bufferView":9,"componentType":5126,"count":41991,"max":[1.2053701877593994,0.7033739686012268,1.2053701877593994],"min":[-1.2053701877593994,0.0008592813392169774,-1.2053701877593994],"type":"VEC3"},{"bufferView":10,"componentType":5126,"count":41991,"max":[1.0,1.0,1.0],"min":[-1.0,-1.0,-1.0],"type":"VEC3"},{"bufferView":11,"componentType":5126,"count":41991,"max":[0.7500001192092896,0.625],"min":[0.2499999850988388,0.37499988079071045],"type":"VEC2"}],"asset":{"generator":"Verge3D for Blender v4.9.2","version":"2.0"},"bufferViews":[{"buffer":0,"byteLength":414720,"byteOffset":0,"target":34963},{"buffer":0,"byteLength":453036,"byteOffset":414720,"target":34962},{"buffer":0,"byteLength":453036,"byteOffset":867756,"target":34962},{"buffer":0,"byteLength":302024,"byteOffset":1320792,"target":34962},{"buffer":0,"byteLength":27648,"byteOffset":1622816,"target":34963},{"buffer":0,"byteLength":30156,"byteOffset":1650464,"target":34962},{"buffer":0,"byteLength":30156,"byteOffset":1680620,"target":34962},{"buffer":0,"byteLength":20104,"byteOffset":1710776,"target":34962},{"buffer":0,"byteLength":463872,"byteOffset":1730880,"target":34963},{"buffer":0,"byteLength":503892,"byteOffset":2194752,"target":34962},{"buffer":0,"byteLength":503892,"byteOffset":2698644,"target":34962},{"buffer":0,"byteLength":335928,"byteOffset":3202536,"target":34962}],"buffers":[{"byteLength":3538464,"uri":"scene.bin"}],"cameras":[{"extensions":{"S8S_v3d_camera":{"controls":"ORBIT","enablePan":true,"moveSpeed":1,"orbitMaxDistance":10000,"orbitMaxPolarAngle":3.141592653589793,"orbitMinDistance":0,"orbitMinPolarAngle":0,"orbitTarget":[0.009847523644566536,0.2720543146133423,0.1262982189655304],"rotateSpeed":1,"viewportFitInitialAspect":1,"viewportFitType":"VERTICAL"}},"name":"__DEFAULT__","perspective":{"aspectRatio":1,"yfov":0.7853981633974483,"zfar":1000.0,"znear":0.009999999776482582},"type":"perspective"}],"extensionsUsed":["S8S_v3d_materials","S8S_v3d_camera","S8S_v3d_mesh","S8S_v3d_node","S8S_v3d_scene"],"materials":[{"alphaMode":"OPAQUE","extensions":{"S8S_v3d_materials":{"gtaoVisible":true,"materialIndex":0,"nodeGraph":{"edges":[{"fromNode":0,"fromOutput":0,"toInput":0,"toNode":1}],"nodes":[{"inputs":[[0.800000011920929,0.800000011920929,0.800000011920929,1.0],0.0,0.5,1.5,1.0,[0.0,0.0,0.0],0.0,0.0,[1.0,0.20000000298023224,0.10000000149011612],0.05000000074505806,1.399999976158142,0.0,0.5,[1.0,1.0,1.0,1.0],0.0,0.0,[0.0,0.0,0.0],0.0,0.0,0.029999999329447746,1.5,[1.0,1.0,1.0,1.0],[0.0,0.0,0.0],0.0,0.5,[1.0,1.0,1.0,1.0],[1.0,1.0,1.0,1.0],0.0,0.0,1.3300000429153442],"is_active_output":false,"name":"Principled BSDF","outputs":[[0,0,0,0]],"type":"BSDF_PRINCIPLED_BL"},{"inputs":[[0,0,0,0],[0,0,0,0],[0.0,0.0,0.0],0.0],"is_active_output":true,"name":"Material Output","outputs":[],"type":"OUTPUT_MATERIAL_BL"}]}}},"name":"Material.004"},{"alphaMode":"BLEND","extensions":{"S8S_v3d_materials":{"gtaoVisible":true,"materialIndex":0,"nodeGraph":{"edges":[{"fromNode":0,"fromOutput":0,"toInput":0,"toNode":1}],"nodes":[{"inputs":[[0.8001489639282227,0.11586840450763702,0.08947859704494476,1.0],0.0,0.5,1.5,0.5136363506317139,[0.0,0.0,0.0],0.0,0.0,[1.0,0.20000000298023224,0.10000000149011612],0.05000000074505806,1.399999976158142,0.0,0.5,[1.0,1.0,1.0,1.0],0.0,0.0,[0.0,0.0,0.0],0.0,0.0,0.029999999329447746,1.5,[1.0,1.0,1.0,1.0],[0.0,0.0,0.0],0.0,0.5,[1.0,1.0,1.0,1.0],[1.0,1.0,1.0,1.0],0.0,0.0,1.3300000429153442],"is_active_output":false,"name":"Principled BSDF","outputs":[[0,0,0,0]],"type":"BSDF_PRINCIPLED_BL"},{"inputs":[[0,0,0,0],[0,0,0,0],[0.0,0.0,0.0],0.0],"is_active_output":true,"name":"Material Output","outputs":[],"type":"OUTPUT_MATERIAL_BL"}]}}},"name":"Material.005"},{"alphaMode":"OPAQUE","extensions":{"S8S_v3d_materials":{"gtaoVisible":true,"materialIndex":0,"nodeGraph":{"edges":[{"fromNode":1,"fromOutput":0,"toInput":0,"toNode":0}],"nodes":[{"inputs":[[0,0,0,0],[0,0,0,0]],"is_active_output":true,"name":"World Output","outputs":[],"type":"OUTPUT_WORLD_BL"},{"inputs":[[0.05087608844041824,0.05087608844041824,0.05087608844041824,1.0],1.0],"is_active_output":false,"name":"Background","outputs":[[0,0,0,0]],"type":"BACKGROUND_BL"}]}}},"name":"Verge3D_Environment_World"}],"meshes":[{"extensions":{"S8S_v3d_mesh":{"colorLayers":{},"uvLayers":{"UVMap":"TEXCOORD_0"}}},"name":"LUXEON HL1Z - multicolor.002","primitives":[{"attributes":{"NORMAL":2,"POSITION":1,"TEXCOORD_0":3},"indices":0,"material":0,"mode":4},{"attributes":{"NORMAL":6,"POSITION":5,"TEXCOORD_0":7},"indices":4,"material":1,"mode":4}]},{"extensions":{"S8S_v3d_mesh":{"colorLayers":{},"uvLayers":{"UVMap":"TEXCOORD_0"}}},"name":"LUXEON HL1Z - multicolor.003","primitives":[{"attributes":{"NORMAL":10,"POSITION":9,"TEXCOORD_0":11},"indices":8,"material":0,"mode":4}]}],"nodes":[{"extensions":{"S8S_v3d_node":{"frustumCulling":true,"groupNames":["Collection 2"],"hidden":false,"hidpiCompositing":false,"objectColor":[1.0,1.0,1.0,1.0],"objectIndex":0,"renderOrder":0,"useCastShadows":true,"useShadows":true}},"mesh":1,"name":"LUXEON HL1Z - multicolor.001"},{"extensions":{"S8S_v3d_node":{"frustumCulling":true,"groupNames":["Collection 2"],"hidden":false,"hidpiCompositing":false,"objectColor":[1.0,1.0,1.0,1.0],"objectIndex":0,"renderOrder":0,"useCastShadows":true,"useShadows":true}},"mesh":0,"name":"LUXEON HL1Z - multicolor.002"},{"camera":0,"name":"__DEFAULT_CAMERA__","rotation":[-0.2166617065668106,0.4754807651042938,0.12208256870508194,0.8438433408737183],"scale":[0.9999999403953552,0.9999997615814209,0.9999998211860657],"translation":[5.427982330322266,3.7543599605560303,3.407644510269165]}],"scene":0,"scenes":[{"extensions":{"S8S_v3d_scene":{"aaMethod":"AUTO","iblEnvironmentMode":"PMREM","physicallyCorrectLights":true,"pmremMaxTileSize":512,"shadowMap":{"esmDistanceScale":1.0,"renderReverseSided":false,"renderSingleSided":true,"type":"PCFPOISSON"},"toneMapping":{"look":"NONE","type":"agxBlender"},"worldMaterial":2}},"extras":{"animFrameRate":24,"coordSystem":"Z_UP_RIGHT"},"name":"Scene","nodes":[1,0,2]}]}
