{"accessors":[{"bufferView":0,"componentType":5123,"count":221184,"max":[40067],"min":[0],"type":"SCALAR"},{"bufferView":1,"componentType":5126,"count":40068,"max":[0.000699999975040555,0.00037891106330789626,0.0006999999168328941],"min":[-0.000699999975040555,4.990142201677372e-07,-0.0006999999168328941],"type":"VEC3"},{"bufferView":2,"componentType":5126,"count":40068,"max":[1.0,1.0,1.0],"min":[-1.0,-1.0,-1.0],"type":"VEC3"},{"bufferView":3,"componentType":5126,"count":40068,"max":[0.7500001192092896,0.625],"min":[0.2499999850988388,0.37499988079071045],"type":"VEC2"}],"asset":{"generator":"Verge3D for Blender v4.9.2","version":"2.0"},"bufferViews":[{"buffer":0,"byteLength":442368,"byteOffset":0,"target":34963},{"buffer":0,"byteLength":480816,"byteOffset":442368,"target":34962},{"buffer":0,"byteLength":480816,"byteOffset":923184,"target":34962},{"buffer":0,"byteLength":320544,"byteOffset":1404000,"target":34962}],"buffers":[{"byteLength":1724544,"uri":"scene2.bin"}],"cameras":[{"extensions":{"S8S_v3d_camera":{"controls":"ORBIT","enablePan":true,"moveSpeed":1,"orbitMaxDistance":10000,"orbitMaxPolarAngle":3.141592653589793,"orbitMinDistance":0,"orbitMinPolarAngle":0,"orbitTarget":[-0.0,-0.0,0.0],"rotateSpeed":1,"viewportFitInitialAspect":1,"viewportFitType":"VERTICAL"}},"name":"__DEFAULT__","perspective":{"aspectRatio":1,"yfov":0.7853981633974483,"zfar":1000.0,"znear":0.009999999776482582},"type":"perspective"}],"extensions":{"S8S_v3d_materials":{"nodeGraphs":[{"edges":[{"fromNode":2,"fromOutput":2,"toInput":0,"toNode":3},{"fromNode":3,"fromOutput":0,"toInput":0,"toNode":5},{"fromNode":4,"fromOutput":0,"toInput":2,"toNode":3},{"fromNode":5,"fromOutput":0,"toInput":0,"toNode":0},{"fromNode":1,"fromOutput":0,"toInput":0,"toNode":4}],"name":"edge_mask","nodes":[{"inputs":[0.0],"is_active_output":true,"name":"Group Output","outputs":[],"type":"GROUP_OUTPUT_BL"},{"inputs":[],"is_active_output":false,"name":"Group Input","outputs":[0.05000000074505806],"type":"GROUP_INPUT_BL"},{"colorLayer":"dist_to_edge","inputs":[],"is_active_output":false,"name":"Attribute","outputs":[[0.800000011920929,0.800000011920929,0.800000011920929,1.0],[0.0,0.0,0.0],0.0,0.0],"type":"ATTRIBUTE_BL"},{"clamp":true,"dataType":"FLOAT","inputs":[1.0,0.0,4.999999873689376e-06,1.0,0.0,4.0,[0.0,0.0,0.0],[0.0,0.0,0.0],[1.0,1.0,1.0],[0.0,0.0,0.0],[1.0,1.0,1.0],[4.0,4.0,4.0]],"interpolationType":"LINEAR","is_active_output":false,"name":"Map Range","outputs":[0.0,[0.0,0.0,0.0]],"type":"MAP_RANGE_BL"},{"inputs":[0.05000000074505806,9.999999747378752e-05,0.5],"is_active_output":false,"name":"Math","operation":"MULTIPLY","outputs":[0.0],"type":"MATH_BL","useClamp":false},{"clamp":true,"dataType":"FLOAT","inputs":[1.0,0.0,1.0,0.0,1.0,4.0,[0.0,0.0,0.0],[0.0,0.0,0.0],[1.0,1.0,1.0],[0.0,0.0,0.0],[1.0,1.0,1.0],[4.0,4.0,4.0]],"interpolationType":"SMOOTHERSTEP","is_active_output":false,"name":"Map Range.001","outputs":[0.0,[0.0,0.0,0.0]],"type":"MAP_RANGE_BL"}]},{"edges":[{"fromNode":3,"fromOutput":2,"toInput":0,"toNode":5},{"fromNode":13,"fromOutput":0,"toInput":0,"toNode":4},{"fromNode":6,"fromOutput":0,"toInput":1,"toNode":4},{"fromNode":7,"fromOutput":0,"toInput":0,"toNode":6},{"fromNode":7,"fromOutput":0,"toInput":2,"toNode":4},{"fromNode":1,"fromOutput":0,"toInput":1,"toNode":5},{"fromNode":8,"fromOutput":1,"toInput":0,"toNode":7},{"fromNode":2,"fromOutput":0,"toInput":4,"toNode":10},{"fromNode":9,"fromOutput":1,"toInput":5,"toNode":10},{"fromNode":10,"fromOutput":1,"toInput":0,"toNode":3},{"fromNode":4,"fromOutput":0,"toInput":0,"toNode":0},{"fromNode":12,"fromOutput":0,"toInput":0,"toNode":11},{"fromNode":12,"fromOutput":0,"toInput":1,"toNode":0},{"fromNode":11,"fromOutput":0,"toInput":2,"toNode":0},{"fromNode":13,"fromOutput":0,"toInput":0,"toNode":12},{"fromNode":5,"fromOutput":0,"toInput":0,"toNode":13}],"name":"NodeGroup","nodes":[{"inputs":[0.0,0.0,0.0],"is_active_output":true,"name":"Group Output","outputs":[],"type":"GROUP_OUTPUT_BL"},{"inputs":[],"is_active_output":false,"name":"Group Input","outputs":[0.5,0.0],"type":"GROUP_INPUT_BL"},{"inputs":[],"is_active_output":false,"name":"Texture Coordinate","object":-1,"outputs":[[0.0,0.0,0.0],[0.0,0.0,0.0],[0.0,0.0,0.0],[0.0,0.0,0.0],[0.0,0.0,0.0],[0.0,0.0,0.0],[0.0,0.0,0.0]],"type":"TEX_COORD_BL"},{"inputs":[[0.0,0.0,0.0]],"is_active_output":false,"name":"Separate XYZ","outputs":[0.0,0.0,0.0],"type":"SEPXYZ_BL"},{"clamp":true,"dataType":"FLOAT","inputs":[1.0,-1.0,1.0,0.0,1.0,4.0,[0.0,0.0,0.0],[0.0,0.0,0.0],[1.0,1.0,1.0],[0.0,0.0,0.0],[1.0,1.0,1.0],[4.0,4.0,4.0]],"interpolationType":"LINEAR","is_active_output":false,"name":"Map Range","outputs":[0.0,[0.0,0.0,0.0]],"type":"MAP_RANGE_BL"},{"inputs":[0.5,0.5,0.5],"is_active_output":false,"name":"Math.001","operation":"SUBTRACT","outputs":[0.0],"type":"MATH_BL","useClamp":false},{"inputs":[0.5,-1.0,0.5],"is_active_output":false,"name":"Math","operation":"MULTIPLY","outputs":[0.0],"type":"MATH_BL","useClamp":false},{"inputs":[0.0],"is_active_output":false,"name":"Reroute.001","outputs":[0.0],"type":"REROUTE_BL"},{"inputs":[],"is_active_output":false,"name":"Group Input.001","outputs":[0.5,0.0],"type":"GROUP_INPUT_BL"},{"dispersionFactor":1.0,"falloffFactor":0.0,"inputs":[[0.0,0.0,0.0],0.0,20.0,2.0,1.0,2.0,0.0,1.0,0.0],"is_active_output":false,"name":"Noise Texture","noiseType":"FBM","outputs":[0.0,[0.800000011920929,0.800000011920929,0.800000011920929,1.0]],"type":"TEX_NOISE_BL"},{"blendType":"MIX","clampFactor":true,"clampResult":false,"dataType":"VECTOR","factorMode":"UNIFORM","inputs":[0.004999999888241291,[0.5,0.5,0.5],0.0,0.0,[0.0,0.0,0.0],[0.0,0.0,0.0],[0.5,0.5,0.5,1.0],[0.5,0.5,0.5,1.0],0,0],"is_active_output":false,"name":"Mix.001","outputs":[0.0,[0.0,0.0,0.0],[0.800000011920929,0.800000011920929,0.800000011920929,1.0],0],"type":"MIX_BL"},{"clamp":true,"dataType":"FLOAT","inputs":[1.0,0.0,-1.0,0.0,1.0,4.0,[0.0,0.0,0.0],[0.0,0.0,0.0],[1.0,1.0,1.0],[0.0,0.0,0.0],[1.0,1.0,1.0],[4.0,4.0,4.0]],"interpolationType":"LINEAR","is_active_output":false,"name":"Map Range.001","outputs":[0.0,[0.0,0.0,0.0]],"type":"MAP_RANGE_BL"},{"inputs":[0.0],"is_active_output":false,"name":"Reroute","outputs":[0.0],"type":"REROUTE_BL"},{"inputs":[0.0],"is_active_output":false,"name":"Reroute.002","outputs":[0.0],"type":"REROUTE_BL"}]}]}},"extensionsUsed":["S8S_v3d_materials","S8S_v3d_camera","S8S_v3d_mesh","S8S_v3d_node","S8S_v3d_scene"],"materials":[{"alphaMode":"OPAQUE","extensions":{"S8S_v3d_materials":{"gtaoVisible":true,"materialIndex":0,"nodeGraph":{"edges":[{"fromNode":4,"fromOutput":0,"toInput":0,"toNode":3},{"fromNode":4,"fromOutput":0,"toInput":3,"toNode":2},{"fromNode":24,"fromOutput":0,"toInput":7,"toNode":7},{"fromNode":7,"fromOutput":2,"toInput":4,"toNode":2},{"fromNode":10,"fromOutput":3,"toInput":0,"toNode":9},{"fromNode":5,"fromOutput":0,"toInput":6,"toNode":11},{"fromNode":9,"fromOutput":0,"toInput":7,"toNode":11},{"fromNode":23,"fromOutput":0,"toInput":0,"toNode":4},{"fromNode":13,"fromOutput":0,"toInput":0,"toNode":12},{"fromNode":12,"fromOutput":0,"toInput":3,"toNode":3},{"fromNode":6,"fromOutput":0,"toInput":0,"toNode":13},{"fromNode":15,"fromOutput":3,"toInput":0,"toNode":18},{"fromNode":20,"fromOutput":0,"toInput":3,"toNode":14},{"fromNode":14,"fromOutput":0,"toInput":7,"toNode":1},{"fromNode":19,"fromOutput":0,"toInput":0,"toNode":17},{"fromNode":6,"fromOutput":1,"toInput":0,"toNode":19},{"fromNode":6,"fromOutput":2,"toInput":1,"toNode":19},{"fromNode":17,"fromOutput":0,"toInput":6,"toNode":16},{"fromNode":16,"fromOutput":2,"toInput":1,"toNode":20},{"fromNode":21,"fromOutput":0,"toInput":1,"toNode":14},{"fromNode":1,"fromOutput":0,"toInput":0,"toNode":0},{"fromNode":18,"fromOutput":0,"toInput":0,"toNode":22},{"fromNode":22,"fromOutput":0,"toInput":7,"toNode":16},{"fromNode":3,"fromOutput":0,"toInput":4,"toNode":1},{"fromNode":13,"fromOutput":0,"toInput":0,"toNode":7},{"fromNode":11,"fromOutput":2,"toInput":0,"toNode":23},{"fromNode":29,"fromOutput":0,"toInput":0,"toNode":24},{"fromNode":2,"fromOutput":0,"toInput":0,"toNode":1}],"nodes":[{"inputs":[[0,0,0,0],[0,0,0,0],[0.0,0.0,0.0],0.0],"is_active_output":true,"name":"Material Output","outputs":[],"type":"OUTPUT_MATERIAL_BL"},{"distribution":"MULTI_GGX","fresnelType":"F82","inputs":[[0.5176978707313538,0.5176978707313538,0.5176978707313538,1.0],[0.6949999928474426,0.7260000109672546,0.7699999809265137,1.0],[2.756999969482422,2.513000011444092,2.2309999465942383],[3.867000102996826,3.4040000438690186,3.009000062942505],0.6000000238418579,0.0,0.0,[0.0,0.0,0.0],[0.0,0.0,0.0]],"is_active_output":false,"name":"Metallic BSDF","outputs":[[0,0,0,0]],"type":"BSDF_METALLIC_BL"},{"inputs":[0.5,1.0,0.7999999523162842,1.0,[0.800000011920929,0.800000011920929,0.800000011920929,1.0]],"is_active_output":false,"name":"Hue/Saturation/Value","outputs":[[0.800000011920929,0.800000011920929,0.800000011920929,1.0]],"type":"HUE_SAT_BL"},{"blendType":"MIX","clampFactor":true,"clampResult":false,"dataType":"FLOAT","factorMode":"UNIFORM","inputs":[0.5,[0.5,0.5,0.5],0.800000011920929,1.0,[0.0,0.0,0.0],[0.0,0.0,0.0],[0.5,0.5,0.5,1.0],[0.5,0.5,0.5,1.0],0,0],"is_active_output":false,"name":"Mix","outputs":[0.0,[0.0,0.0,0.0],[0.800000011920929,0.800000011920929,0.800000011920929,1.0],0],"type":"MIX_BL"},{"inputs":[[0.0,0.0,0.0,1.0]],"is_active_output":false,"name":"Reroute","outputs":[[0.0,0.0,0.0,1.0]],"type":"REROUTE_BL"},{"inputs":[0.07999999821186066],"is_active_output":false,"name":"Group","nodeGraph":0,"outputs":[0.0],"type":"GROUP_BL"},{"inputs":[0.6499999761581421,0.0020000000949949026],"is_active_output":false,"name":"Group.001","nodeGraph":1,"outputs":[0.0,0.0,0.0],"type":"GROUP_BL"},{"blendType":"MIX","clampFactor":true,"clampResult":false,"dataType":"RGBA","factorMode":"UNIFORM","inputs":[0.5,[0.5,0.5,0.5],0.0,0.0,[0.0,0.0,0.0],[0.0,0.0,0.0],[0.5330873131752014,0.5897576808929443,0.6309151649475098,1.0],[0.5,0.5,0.5,1.0],0,0],"is_active_output":false,"name":"Mix.001","outputs":[0.0,[0.0,0.0,0.0],[0.800000011920929,0.800000011920929,0.800000011920929,1.0],0],"type":"MIX_BL"},{"inputs":[],"is_active_output":false,"name":"RGB.002","outputs":[[0.603824257850647,0.02121896483004093,0.008568144403398037,1.0]],"type":"RGB_BL"},{"dispersionFactor":1.0,"falloffFactor":0.0,"inputs":[[0.0,0.0,0.0],0.0,100000.0,4.0,1.0,4.0,0.0,1.0,0.0],"is_active_output":false,"name":"Noise Texture","noiseType":"FBM","outputs":[0.0,[0.800000011920929,0.800000011920929,0.800000011920929,1.0]],"type":"TEX_NOISE_BL"},{"inputs":[],"is_active_output":false,"name":"Texture Coordinate","object":-1,"outputs":[[0.0,0.0,0.0],[0.0,0.0,0.0],[0.0,0.0,0.0],[0.0,0.0,0.0],[0.0,0.0,0.0],[0.0,0.0,0.0],[0.0,0.0,0.0]],"type":"TEX_COORD_BL"},{"blendType":"OVERLAY","clampFactor":true,"clampResult":false,"dataType":"RGBA","factorMode":"UNIFORM","inputs":[0.699999988079071,[0.5,0.5,0.5],0.0,0.0,[0.0,0.0,0.0],[0.0,0.0,0.0],[0.5,0.5,0.5,1.0],[0.5,0.5,0.5,1.0],0,0],"is_active_output":false,"name":"Mix.002","outputs":[0.0,[0.0,0.0,0.0],[0.800000011920929,0.800000011920929,0.800000011920929,1.0],0],"type":"MIX_BL"},{"blendType":"MIX","clampFactor":true,"clampResult":false,"dataType":"FLOAT","factorMode":"UNIFORM","inputs":[0.5,[0.5,0.5,0.5],0.7000000476837158,0.8999999761581421,[0.0,0.0,0.0],[0.0,0.0,0.0],[0.5,0.5,0.5,1.0],[0.5,0.5,0.5,1.0],0,0],"is_active_output":false,"name":"Mix.003","outputs":[0.0,[0.0,0.0,0.0],[0.800000011920929,0.800000011920929,0.800000011920929,1.0],0],"type":"MIX_BL"},{"inputs":[0.0],"is_active_output":false,"name":"Reroute.001","outputs":[0.0],"type":"REROUTE_BL"},{"inputs":[1.0,9.999999747378752e-05,0.10000000149011612,1.0,[0.0,0.0,0.0]],"invert":false,"is_active_output":false,"name":"Bump","outputs":[[0.0,0.0,0.0]],"type":"BUMP_BL"},{"inputs":[],"is_active_output":false,"name":"Texture Coordinate.001","object":-1,"outputs":[[0.0,0.0,0.0],[0.0,0.0,0.0],[0.0,0.0,0.0],[0.0,0.0,0.0],[0.0,0.0,0.0],[0.0,0.0,0.0],[0.0,0.0,0.0]],"type":"TEX_COORD_BL"},{"blendType":"OVERLAY","clampFactor":true,"clampResult":false,"dataType":"RGBA","factorMode":"UNIFORM","inputs":[1.0,[0.5,0.5,0.5],0.0,0.0,[0.0,0.0,0.0],[0.0,0.0,0.0],[0.5,0.5,0.5,1.0],[0.5,0.5,0.5,1.0],0,0],"is_active_output":false,"name":"Mix.005","outputs":[0.0,[0.0,0.0,0.0],[0.800000011920929,0.800000011920929,0.800000011920929,1.0],0],"type":"MIX_BL"},{"clamp":true,"dataType":"FLOAT","inputs":[1.0,0.0,0.03999999910593033,1.0,0.0,4.0,[0.0,0.0,0.0],[0.0,0.0,0.0],[1.0,1.0,1.0],[0.0,0.0,0.0],[1.0,1.0,1.0],[4.0,4.0,4.0]],"interpolationType":"LINEAR","is_active_output":false,"name":"Map Range","outputs":[0.0,[0.0,0.0,0.0]],"type":"MAP_RANGE_BL"},{"inputs":[[0.0,0.0,0.0],[1.0,1.0,0.10000000149011612],[0.0,0.0,0.0],1.0],"is_active_output":false,"name":"Vector Math","operation":"MULTIPLY","outputs":[[0.0,0.0,0.0],0.0],"type":"VECT_MATH_BL"},{"inputs":[0.5,0.5,0.5],"is_active_output":false,"name":"Math","operation":"MAXIMUM","outputs":[0.0],"type":"MATH_BL","useClamp":false},{"curveData":[0.0,0.0,0.0,0.0,0.0,0.0,0.0,0.0,0.0,0.0,0.0,0.0,0.0,0.0,0.0,0.0,0.0,0.0,0.0,0.0,0.0,0.0,0.0,0.0,0.0,0.0,0.0,0.0,0.0,0.0,0.0,0.0,0.0,0.0,0.0,0.0,0.0,0.0,0.0,0.0,0.0,0.0,0.0,0.0,0.0,0.0,0.0,0.0,0.0,0.0,0.0,0.0,0.0,0.0,0.0,0.0,0.0,0.0,0.0,0.0,0.0,0.0,0.0,0.0,0.0,0.0,0.0,0.0,0.0,0.0,0.0,0.0,0.0,0.0,0.0,0.0,0.0,0.0,0.0,0.0,0.0,0.0,0.0,0.0,0.0,0.0,0.0,0.0,0.0,0.0,0.0,0.0,0.0,0.0,0.0,0.0,0.0,0.0,0.0,0.0,0.0,0.0,0.0,0.0,0.0,0.0,0.0,0.0,0.0,0.0,0.0,0.0,0.0,0.0,0.0,0.0,0.0,0.0,0.0,0.0,0.0,0.0,0.0,0.0,0.0,0.0,0.0,0.0,8.524138479515386e-07,2.5572412596375216e-06,4.667140728997765e-06,1.68082242453238e-05,2.9024837203905918e-05,5.4334701417246833e-05,8.78496648510918e-05,0.0001292765373364091,0.00019562788656912744,0.00026318832533434033,0.0003687145945150405,0.00048014731146395206,0.0006253451574593782,0.0007938001654110849,0.0009855834068730474,0.0012242862721905112,0.0014713293639943004,0.0017936931690201163,0.002120665740221739,0.0025261701084673405,0.0029487181454896927,0.0034476211294531822,0.0039792750030756,0.004585644230246544,0.0052435570396482944,0.005969445686787367,0.006768560968339443,0.007629727479070425,0.008585186675190926,0.00959855131804943,0.010725694708526134,0.011909177526831627,0.013223481364548206,0.01459586713463068,0.01611286960542202,0.017693674191832542,0.019428923726081848,0.021238211542367935,0.023207174614071846,0.02526538446545601,0.027483373880386353,0.029811114072799683,0.03229321539402008,0.034911058843135834,0.037672046571969986,0.04060029983520508,0.04365454614162445,0.046913035213947296,0.05028388649225235,0.053882285952568054,0.05758814141154289,0.06153956800699234,0.06559617072343826,0.06991463899612427,0.07433698326349258,0.0790351927280426,0.08384270966053009,0.08892659842967987,0.0941513329744339,0.09961168467998505,0.10526514053344727,0.11111053824424744,0.1172022745013237,0.12344035506248474,0.1306108832359314,0.1380920261144638,0.14662900567054749,0.15562699735164642,0.16584241390228271,0.17661219835281372,0.18865033984184265,0.20143559575080872,0.21545405685901642,0.23078469932079315,0.24711164832115173,0.2648222744464874,0.2840924859046936,0.3046712875366211,0.32669389247894287,0.3502759039402008,0.37530773878097534,0.4017760157585144,0.4295935332775116,0.45850586891174316,0.4882682263851166,0.5185699462890625,0.5490541458129883,0.5793443918228149,0.6090753674507141,0.6379218697547913,0.6656217575073242,0.691988468170166,0.7169152498245239,0.7403134107589722,0.7622121572494507,0.7825360298156738,0.8012367486953735,0.8186920285224915,0.8348761796951294,0.8494587540626526,0.8630740642547607,0.8756498098373413,0.8868224024772644,0.8974299430847168,0.9067121744155884,0.915636420249939,0.9236264824867249,0.930961012840271,0.9377366304397583,0.9439452886581421,0.9496176242828369,0.9548050165176392,0.9595121741294861,0.9638165235519409,0.9677202105522156,0.9712967872619629,0.9745655059814453,0.9775707721710205,0.9803636074066162,0.9829446077346802,0.9853760004043579,0.9876806139945984,0.9898731112480164,0.9919841289520264,0.9940363764762878,0.9960464239120483,0.9980297684669495,0.9999998211860657],"inputs":[1.0,1.0],"is_active_output":false,"name":"Float Curve","outputs":[0.0],"type":"CURVE_FLOAT_BL"},{"inputs":[0.006000000052154064,9.999999747378752e-05,0.5],"is_active_output":false,"name":"Math.001","operation":"MULTIPLY","outputs":[0.0],"type":"MATH_BL","useClamp":false},{"dispersionFactor":1.0,"falloffFactor":0.0,"inputs":[[0.0,0.0,0.0],0.0,400000.0,2.0,0.0,2.0,0.0,1.0,0.0],"is_active_output":false,"name":"Noise Texture.001","noiseType":"FBM","outputs":[0.0,[0.800000011920929,0.800000011920929,0.800000011920929,1.0]],"type":"TEX_NOISE_BL"},{"inputs":[[0.0,0.0,0.0,1.0]],"is_active_output":false,"name":"Reroute.002","outputs":[[0.0,0.0,0.0,1.0]],"type":"REROUTE_BL"},{"inputs":[[0.0,0.0,0.0,1.0]],"is_active_output":false,"name":"Reroute.003","outputs":[[0.0,0.0,0.0,1.0]],"type":"REROUTE_BL"},{"inputs":[],"is_active_output":false,"name":"RGB.003","outputs":[[0.7529385089874268,0.06480325758457184,0.012983063235878944,1.0]],"type":"RGB_BL"},{"inputs":[],"is_active_output":false,"name":"RGB.004","outputs":[[1.0,0.3277784287929535,0.004024812486022711,1.0]],"type":"RGB_BL"},{"inputs":[],"is_active_output":false,"name":"RGB.005","outputs":[[0.8468683362007141,0.9473075866699219,0.027321115136146545,1.0]],"type":"RGB_BL"},{"inputs":[],"is_active_output":false,"name":"RGB.006","outputs":[[1.0,0.3229999840259552,0.04399999976158142,1.0]],"type":"RGB_BL"},{"inputs":[],"is_active_output":false,"name":"RGB.007","outputs":[[0.8962640762329102,0.8069532513618469,0.16202962398529053,1.0]],"type":"RGB_BL"}]}}},"name":"LED Material - Multicolor"},{"alphaMode":"OPAQUE","extensions":{"S8S_v3d_materials":{"gtaoVisible":true,"materialIndex":0,"nodeGraph":{"edges":[{"fromNode":1,"fromOutput":0,"toInput":0,"toNode":0}],"nodes":[{"inputs":[[0,0,0,0],[0,0,0,0]],"is_active_output":true,"name":"World Output","outputs":[],"type":"OUTPUT_WORLD_BL"},{"inputs":[[0.05087608844041824,0.05087608844041824,0.05087608844041824,1.0],1.0],"is_active_output":false,"name":"Background","outputs":[[0,0,0,0]],"type":"BACKGROUND_BL"}]}}},"name":"Verge3D_Environment_World"}],"meshes":[{"extensions":{"S8S_v3d_mesh":{"colorLayers":{},"uvLayers":{"UVMap":"TEXCOORD_0"}}},"name":"LUXEON HL1Z - multicolor","primitives":[{"attributes":{"NORMAL":2,"POSITION":1,"TEXCOORD_0":3},"indices":0,"material":0,"mode":4}]}],"nodes":[{"extensions":{"S8S_v3d_node":{"frustumCulling":true,"groupNames":["Collection"],"hidden":false,"hidpiCompositing":false,"objectColor":[1.0,1.0,1.0,1.0],"objectIndex":0,"renderOrder":0,"useCastShadows":true,"useShadows":true}},"mesh":0,"name":"LUXEON HL1Z - multicolor"},{"camera":0,"name":"__DEFAULT_CAMERA__","rotation":[-0.21538609266281128,0.17086417973041534,0.03830716386437416,0.9607012271881104],"scale":[0.9999998807907104,0.9999997615814209,0.9999998211860657],"translation":[0.004578800871968269,0.006269608158618212,0.01246520597487688]}],"scene":0,"scenes":[{"extensions":{"S8S_v3d_scene":{"aaMethod":"AUTO","iblEnvironmentMode":"PMREM","physicallyCorrectLights":true,"pmremMaxTileSize":512,"shadowMap":{"esmDistanceScale":1.0,"renderReverseSided":false,"renderSingleSided":true,"type":"PCFPOISSON"},"toneMapping":{"look":"NONE","type":"agxBlender"},"worldMaterial":1}},"extras":{"animFrameRate":24,"coordSystem":"Z_UP_RIGHT"},"name":"Scene","nodes":[0,1]}]}
