{"accessors":[{"bufferView":0,"componentType":5121,"count":30,"max":[19],"min":[0],"type":"SCALAR"},{"bufferView":1,"componentType":5126,"count":20,"max":[0.7842272520065308,0.7842272520065308,-0.025740042328834534],"min":[-0.7842272520065308,-0.7842272520065308,-0.12274862080812454],"type":"VEC3"},{"bufferView":2,"componentType":5126,"count":20,"max":[1.0,1.0,-0.0],"min":[-1.0,-1.0,-1.0],"type":"VEC3"},{"bufferView":3,"componentType":5126,"count":20,"max":[1.0,0.0,-0.0,-1.0],"min":[1.0,0.0,-0.0,-1.0],"type":"VEC4"},{"bufferView":4,"componentType":5126,"count":20,"max":[0.0,1.0],"min":[0.0,1.0],"type":"VEC2"},{"bufferView":5,"componentType":5121,"count":270,"max":[95],"min":[0],"type":"SCALAR"},{"bufferView":6,"componentType":5126,"count":96,"max":[0.7842272520065308,0.7842272520065308,0.12274865806102753],"min":[-0.7842272520065308,-0.7842272520065308,-0.025740042328834534],"type":"VEC3"},{"bufferView":7,"componentType":5126,"count":96,"max":[1.0,1.0,1.0],"min":[-1.0,-1.0,-0.0],"type":"VEC3"},{"bufferView":8,"componentType":5126,"count":96,"max":[1.0,5.454305210150778e-06,1.0,1.0],"min":[0.0,-4.32843626185786e-06,-1.0,1.0],"type":"VEC4"},{"bufferView":9,"componentType":5126,"count":96,"max":[4.354755401611328,3.2561213970184326],"min":[-3.354755163192749,-1.928635835647583],"type":"VEC2"},{"bufferView":10,"componentType":5121,"count":216,"max":[75],"min":[0],"type":"SCALAR"},{"bufferView":11,"componentType":5126,"count":76,"max":[0.4645766019821167,0.46662455797195435,0.12274865806102753],"min":[-0.4733351469039917,-0.4900910258293152,0.12274862080812454],"type":"VEC3"},{"bufferView":12,"componentType":5126,"count":76,"max":[8.765304926328099e-08,3.2496604944753926e-06,1.0],"min":[-6.354856907364592e-08,-3.3252792945859255e-06,0.9999999403953552],"type":"VEC3"},{"bufferView":13,"componentType":5126,"count":76,"max":[1.0,4.715986142400652e-05,6.354856907364592e-08,1.0],"min":[0.9999999403953552,-8.07609103503637e-05,-8.765299241986213e-08,1.0],"type":"VEC4"},{"bufferView":14,"componentType":5126,"count":76,"max":[-0.7734004259109497,1.1336669027805328],"min":[-0.7803046703338623,0.27139055728912354],"type":"VEC2"}],"asset":{"generator":"Soft8Soft Verge3D for Blender add-on","version":"2.0"},"bufferViews":[{"buffer":0,"byteLength":30,"byteOffset":0,"target":34963},{"buffer":0,"byteLength":240,"byteOffset":32,"target":34962},{"buffer":0,"byteLength":240,"byteOffset":272,"target":34962},{"buffer":0,"byteLength":320,"byteOffset":512,"target":34962},{"buffer":0,"byteLength":160,"byteOffset":832,"target":34962},{"buffer":0,"byteLength":270,"byteOffset":992,"target":34963},{"buffer":0,"byteLength":1152,"byteOffset":1264,"target":34962},{"buffer":0,"byteLength":1152,"byteOffset":2416,"target":34962},{"buffer":0,"byteLength":1536,"byteOffset":3568,"target":34962},{"buffer":0,"byteLength":768,"byteOffset":5104,"target":34962},{"buffer":0,"byteLength":216,"byteOffset":5872,"target":34963},{"buffer":0,"byteLength":912,"byteOffset":6088,"target":34962},{"buffer":0,"byteLength":912,"byteOffset":7000,"target":34962},{"buffer":0,"byteLength":1216,"byteOffset":7912,"target":34962},{"buffer":0,"byteLength":608,"byteOffset":9128,"target":34962}],"buffers":[{"byteLength":9736,"uri":"scene.bin"}],"cameras":[{"extensions":{"S8S_v3d_camera_data":{"controls":"ORBIT","enablePan":true,"moveSpeed":1.0,"orbitMaxDistance":8.899999618530273,"orbitMaxPolarAngle":3.1415927410125732,"orbitMaxZoom":100.0,"orbitMinDistance":8.899999618530273,"orbitMinPolarAngle":-3.1415927410125732,"orbitMinZoom":0.009999999776482582,"orbitTarget":[0.0,0.0950000137090683,-0.0],"rotateSpeed":1.0,"viewportFitInitialAspect":1.0,"viewportFitType":"AUTO"}},"name":"Camera.001","perspective":{"aspectRatio":1.0,"yfov":0.23885785043239594,"zfar":1000.0,"znear":0.10000000149011612},"type":"perspective"}],"extensions":{"S8S_v3d_data":{"lights":[{"color":[1.0,1.0,1.0],"decay":2,"distance":14.142135781781635,"intensity":200.0,"name":"Point","profile":"blender","shadow":{"bias":-0.0018,"cameraFar":14.142135781781635,"cameraFov":0,"cameraNear":0.05000000074505806,"enabled":false,"expBias":2.5,"mapSize":512,"radius":1.0,"slopeScaledBias":2.5},"type":"point"},{"color":[1.0,1.0,1.0],"decay":2,"distance":14.142135781781635,"intensity":200.0,"name":"Point.001","profile":"blender","shadow":{"bias":-0.0018,"cameraFar":14.142135781781635,"cameraFov":0,"cameraNear":0.05000000074505806,"enabled":false,"expBias":2.5,"mapSize":512,"radius":1.0,"slopeScaledBias":2.5},"type":"point"},{"color":[1.0,1.0,1.0],"decay":2,"distance":14.142135781781635,"intensity":200.0,"name":"Point.002","profile":"blender","shadow":{"bias":-0.0018,"cameraFar":14.142135781781635,"cameraFov":0,"cameraNear":0.05000000074505806,"enabled":false,"expBias":2.5,"mapSize":512,"radius":1.0,"slopeScaledBias":2.5},"type":"point"},{"color":[1.0,1.0,1.0],"decay":2,"distance":14.142135781781635,"intensity":200.0,"name":"Point.003","profile":"blender","shadow":{"bias":-0.0018,"cameraFar":14.142135781781635,"cameraFov":0,"cameraNear":0.05000000074505806,"enabled":false,"expBias":2.5,"mapSize":512,"radius":1.0,"slopeScaledBias":2.5},"type":"point"},{"color":[1.0,1.0,1.0],"decay":2,"distance":14.142135781781635,"intensity":200.0,"name":"Point.004","profile":"blender","shadow":{"bias":-0.0018,"cameraFar":14.142135781781635,"cameraFov":0,"cameraNear":0.05000000074505806,"enabled":false,"expBias":2.5,"mapSize":512,"radius":1.0,"slopeScaledBias":2.5},"type":"point"},{"color":[1.0,1.0,1.0],"decay":2,"distance":10.379723015046403,"intensity":107.7386474609375,"name":"Point.005","profile":"blender","shadow":{"bias":-0.0018,"cameraFar":10.379723015046403,"cameraFov":0,"cameraNear":0.05000000074505806,"enabled":false,"expBias":2.5,"mapSize":512,"radius":1.0,"slopeScaledBias":2.5},"type":"point"},{"color":[1.0,1.0,1.0],"decay":2,"distance":8.936852164732022,"intensity":79.86732482910156,"name":"Point.006","profile":"blender","shadow":{"bias":-0.0018,"cameraFar":8.936852164732022,"cameraFov":0,"cameraNear":0.05000000074505806,"enabled":false,"expBias":2.5,"mapSize":512,"radius":1.0,"slopeScaledBias":2.5},"type":"point"}]}},"extensionsUsed":["S8S_v3d_texture_data","S8S_v3d_material_data","S8S_v3d_camera_data","S8S_v3d_data","S8S_v3d_mesh_data","S8S_v3d_node_data","S8S_v3d_scene_data"],"images":[{"uri":"noise grains.png"},{"uri":"environment.png"}],"materials":[{"extensions":{"S8S_v3d_material_data":{"nodeGraph":{"edges":[{"fromNode":3,"fromOutput":0,"toInput":1,"toNode":2},{"fromNode":2,"fromOutput":0,"toInput":20,"toNode":1},{"fromNode":1,"fromOutput":0,"toInput":0,"toNode":0}],"nodes":[{"inputs":[[0,0,0,0],[0,0,0,0],[0.0,0.0,0.0]],"is_active_output":true,"name":"Material Output","outputs":[],"type":"OUTPUT_MATERIAL_BL"},{"inputs":[[0.893348753452301,0.9561482071876526,0.9399958252906799,1.0],0.0,[1.0,0.20000000298023224,0.10000000149011612],[0.800000011920929,0.800000011920929,0.800000011920929,1.0],0.0,0.35500001907348633,0.0,0.27000001072883606,0.0,0.0,0.0,0.5,0.0,0.029999999329447746,1.4500000476837158,0.0,0.0,[0.0,0.0,0.0,1.0],1.0,1.0,[0.0,0.0,0.0],[0.0,0.0,0.0],[0.0,0.0,0.0]],"is_active_output":false,"name":"Principled BSDF.001","outputs":[[0,0,0,0]],"type":"BSDF_PRINCIPLED_BL"},{"inputs":[0.75,[0.5,0.5,1.0,1.0]],"is_active_output":false,"name":"Normal Map","outputs":[[0.0,0.0,0.0]],"type":"NORMAL_MAP_BL","uvLayer":""},{"inputs":[[0.0,0.0,0.0]],"is_active_output":false,"name":"Image Texture","outputs":[[0.0,0.0,0.0,0.0],0.0],"projection":"FLAT","projectionBlend":0.0,"texture":0,"type":"TEX_IMAGE_BL"}]}}},"name":"Plastic"},{"extensions":{"S8S_v3d_material_data":{"nodeGraph":{"edges":[{"fromNode":0,"fromOutput":0,"toInput":0,"toNode":1},{"fromNode":3,"fromOutput":0,"toInput":1,"toNode":2},{"fromNode":2,"fromOutput":0,"toInput":20,"toNode":0}],"nodes":[{"inputs":[[0.7773103713989258,0.5773592591285706,0.19631269574165344,1.0],0.0,[1.0,0.20000000298023224,0.10000000149011612],[0.800000011920929,0.800000011920929,0.800000011920929,1.0],1.0,0.5,0.0,0.375,0.0,0.0,0.0,0.5,0.0,0.029999999329447746,1.4500000476837158,0.0,0.0,[0.0,0.0,0.0,1.0],1.0,1.0,[0.0,0.0,0.0],[0.0,0.0,0.0],[0.0,0.0,0.0]],"is_active_output":false,"name":"Principled BSDF","outputs":[[0,0,0,0]],"type":"BSDF_PRINCIPLED_BL"},{"inputs":[[0,0,0,0],[0,0,0,0],[0.0,0.0,0.0]],"is_active_output":true,"name":"Material Output","outputs":[],"type":"OUTPUT_MATERIAL_BL"},{"inputs":[0.25,[0.5,0.5,1.0,1.0]],"is_active_output":false,"name":"Normal Map","outputs":[[0.0,0.0,0.0]],"type":"NORMAL_MAP_BL","uvLayer":""},{"inputs":[[0.0,0.0,0.0]],"is_active_output":false,"name":"Image Texture","outputs":[[0.0,0.0,0.0,0.0],0.0],"projection":"FLAT","projectionBlend":0.0,"texture":0,"type":"TEX_IMAGE_BL"}]}}},"name":"Terminals_gold"},{"extensions":{"S8S_v3d_material_data":{"nodeGraph":{"edges":[{"fromNode":1,"fromOutput":0,"toInput":0,"toNode":0}],"nodes":[{"inputs":[[0,0,0,0],[0,0,0,0],[0.0,0.0,0.0]],"is_active_output":true,"name":"Material Output","outputs":[],"type":"OUTPUT_MATERIAL_BL"},{"inputs":[[0.8103698492050171,0.4480586647987366,0.0,1.0],0.0,[1.0,0.20000000298023224,0.10000000149011612],[0.800000011920929,0.800000011920929,0.800000011920929,1.0],0.0,0.5,1.0,0.4073171019554138,0.0,0.0,0.0,0.5,0.0,0.029999999329447746,1.4500000476837158,0.0,0.0,[0.0,0.0,0.0,1.0],1.0,1.0,[0.0,0.0,0.0],[0.0,0.0,0.0],[0.0,0.0,0.0]],"is_active_output":false,"name":"Principled BSDF.001","outputs":[[0,0,0,0]],"type":"BSDF_PRINCIPLED_BL"}]}}},"name":"Yellow"},{"extensions":{"S8S_v3d_material_data":{"nodeGraph":{"edges":[{"fromNode":5,"fromOutput":0,"toInput":0,"toNode":4},{"fromNode":0,"fromOutput":0,"toInput":0,"toNode":1},{"fromNode":1,"fromOutput":0,"toInput":0,"toNode":6},{"fromNode":2,"fromOutput":0,"toInput":0,"toNode":3},{"fromNode":6,"fromOutput":0,"toInput":0,"toNode":2}],"nodes":[{"inputs":[],"is_active_output":false,"name":"HDRIHandler_ShaderNodeTexCoord","object":-1,"outputs":[[0.0,0.0,0.0],[0.0,0.0,0.0],[0.0,0.0,0.0],[0.0,0.0,0.0],[0.0,0.0,0.0],[0.0,0.0,0.0],[0.0,0.0,0.0]],"type":"TEX_COORD_BL"},{"inputs":[[0.0,0.0,0.0],[0.0,0.0,0.0],[0.0,0.0,-0.10506995767354965],[1.0,1.0,1.0]],"is_active_output":false,"name":"HDRIHandler_ShaderNodeMapping","outputs":[[0.0,0.0,0.0]],"type":"MAPPING_BL","vectorType":"POINT"},{"inputs":[[0.800000011920929,0.800000011920929,0.800000011920929,1.0],0.5213779807090759],"is_active_output":false,"name":"HDRIHandler_ShaderNodeBackground","outputs":[[0,0,0,0]],"type":"BACKGROUND_BL"},{"inputs":[[0,0,0,0],[0,0,0,0]],"is_active_output":true,"name":"HDRIHandler_ShaderNodeOutputWorld","outputs":[],"type":"OUTPUT_WORLD_BL"},{"inputs":[[0,0,0,0],[0,0,0,0]],"is_active_output":false,"name":"World Output","outputs":[],"type":"OUTPUT_WORLD_BL"},{"inputs":[[0.05087608844041824,0.05087608844041824,0.05087608844041824,1.0],1.0],"is_active_output":false,"name":"Background","outputs":[[0,0,0,0]],"type":"BACKGROUND_BL"},{"inputs":[[0.0,0.0,0.0]],"is_active_output":false,"name":"HDRIHandler_ShaderNodeTexEnvironment","outputs":[[0.0,0.0,0.0,0.0]],"projection":"EQUIRECTANGULAR","texture":2,"type":"TEX_ENVIRONMENT_BL"}]}}},"name":"Verge3D_Environment_World"}],"meshes":[{"extensions":{"S8S_v3d_mesh_data":{"colorLayers":{},"uvLayers":{"UVMap":"TEXCOORD_0"}}},"name":"Part__Feature","primitives":[{"attributes":{"NORMAL":2,"POSITION":1,"TANGENT":3,"TEXCOORD_0":4},"indices":0,"material":2,"mode":4},{"attributes":{"NORMAL":7,"POSITION":6,"TANGENT":8,"TEXCOORD_0":9},"indices":5,"material":0,"mode":4},{"attributes":{"NORMAL":12,"POSITION":11,"TANGENT":13,"TEXCOORD_0":14},"indices":10,"material":1,"mode":4}]}],"nodes":[{"extensions":{"S8S_v3d_node_data":{"frustumCulling":true,"groupNames":[],"hidden":false,"light":5,"renderOrder":0}},"name":"Point.006","rotation":[-0.29225078225135803,0.03828601539134979,0.011710758320987225,0.9555034041404724],"scale":[1.0,1.0,1.0],"translation":[2.490920066833496,0.355005145072937,0.057707250118255615]},{"extensions":{"S8S_v3d_node_data":{"frustumCulling":true,"groupNames":["HL1Z"],"hidden":false,"renderOrder":0}},"mesh":0,"name":"HL2Z","rotation":[0.7071068286895752,0.0,-0.0,0.7071067094802856],"scale":[0.6739177107810974,0.6739176511764526,0.9358648061752319]},{"extensions":{"S8S_v3d_node_data":{"frustumCulling":true,"groupNames":["lights"],"hidden":false,"light":1,"renderOrder":0}},"name":"Point.001","rotation":[-0.2782362699508667,0.3751874268054962,0.11914972215890884,0.8761405944824219],"scale":[1.0,0.9999999403953552,0.9999998807907104],"translation":[-3.6620585918426514,-0.22273388504981995,-0.7015191316604614]},{"extensions":{"S8S_v3d_node_data":{"frustumCulling":true,"groupNames":["lights"],"hidden":false,"light":4,"renderOrder":0}},"name":"Point.004","rotation":[-0.2782362699508667,0.3751874268054962,0.11914972215890884,0.8761405944824219],"scale":[1.0,0.9999999403953552,0.9999998807907104],"translation":[0.0,-1.8355780839920044,0.0]},{"camera":0,"extensions":{"S8S_v3d_node_data":{"frustumCulling":true,"groupNames":[],"hidden":false,"renderOrder":0}},"name":"Camera","rotation":[-0.40798231959342957,-0.2200533002614975,-0.10199896991252899,0.8801835775375366],"scale":[1.0,0.9999998807907104,0.9999998807907104],"translation":[-1.8743889331817627,4.7977423667907715,3.5143449306488037]},{"extensions":{"S8S_v3d_node_data":{"frustumCulling":true,"groupNames":[],"hidden":false,"light":5,"renderOrder":0}},"name":"Point.005","rotation":[-0.29225078225135803,0.03828601539134979,0.011710758320987225,0.9555034041404724],"scale":[1.0,1.0,1.0],"translation":[-2.0512938499450684,0.355005145072937,-0.908284068107605]},{"extensions":{"S8S_v3d_node_data":{"frustumCulling":true,"groupNames":[],"hidden":false,"light":6,"renderOrder":0}},"name":"Point.007","rotation":[-0.29225078225135803,0.03828601539134979,0.011710758320987225,0.9555034041404724],"scale":[1.0,1.0,1.0],"translation":[0.7046942710876465,3.58675479888916,-2.1672635078430176]},{"extensions":{"S8S_v3d_node_data":{"frustumCulling":true,"groupNames":["lights"],"hidden":false,"light":0,"renderOrder":0}},"name":"Point","rotation":[-0.2782362699508667,0.3751874268054962,0.11914972215890884,0.8761405944824219],"scale":[1.0,0.9999999403953552,0.9999998807907104],"translation":[0.8140576481819153,2.0214312076568604,-1.31424081325531]},{"extensions":{"S8S_v3d_node_data":{"frustumCulling":true,"groupNames":["lights"],"hidden":false,"light":2,"renderOrder":0}},"name":"Point.002","rotation":[-0.2782362699508667,0.3751874268054962,0.11914972215890884,0.8761405944824219],"scale":[1.0,0.9999999403953552,0.9999998807907104],"translation":[2.1797001361846924,2.73664927482605,3.5552256107330322]},{"extensions":{"S8S_v3d_node_data":{"frustumCulling":true,"groupNames":["lights"],"hidden":false,"light":3,"renderOrder":0}},"name":"Point.003","rotation":[-0.2782362699508667,0.3751874268054962,0.11914972215890884,0.8761405944824219],"scale":[1.0,0.9999999403953552,0.9999998807907104],"translation":[-2.4770052433013916,3.532068967819214,-2.631117582321167]}],"samplers":[{}],"scene":0,"scenes":[{"extensions":{"S8S_v3d_scene_data":{"aaMethod":"AUTO","iblEnvironmentMode":"PROBE_CUBEMAP","physicallyCorrectLights":true,"pmremMaxTileSize":512,"toneMapping":{"type":"filmicBlender"},"worldMaterial":3}},"extras":{"animFrameRate":24,"coordSystem":"Z_UP_RIGHT"},"name":"Scene","nodes":[4,5,0,6,1,7,2,8,9,3]}],"textures":[{"extensions":{"S8S_v3d_texture_data":{"colorSpace":"linear"}},"name":"noise grains.png","sampler":0,"source":0},{"extensions":{"S8S_v3d_texture_data":{"colorSpace":"linear"}},"name":"noise grains.png","sampler":0,"source":0},{"extensions":{"S8S_v3d_texture_data":{"colorSpace":"linear"}},"name":"environment.png","sampler":0,"source":1}]}
